<svg width="16" height="12" viewBox="0 0 16 12" fill="none" xmlns="http://www.w3.org/2000/svg">
<path d="M15.5977 3.77051C15.7148 3.68262 15.8906 3.77051 15.8906 3.91699V9.89355C15.8906 10.6846 15.2461 11.2998 14.4844 11.2998H2.29688C1.50586 11.2998 0.890625 10.6846 0.890625 9.89355V3.91699C0.890625 3.77051 1.03711 3.68262 1.1543 3.77051C1.82812 4.29785 2.67773 4.94238 5.66602 7.11035C6.28125 7.5498 7.33594 8.5166 8.39062 8.5166C9.41602 8.5166 10.5 7.5498 11.0859 7.11035C14.0742 4.94238 14.9238 4.29785 15.5977 3.77051ZM8.39062 7.5498C7.6875 7.5791 6.7207 6.7002 6.22266 6.34863C2.32617 3.53613 2.0332 3.27246 1.1543 2.56934C0.978516 2.45215 0.890625 2.24707 0.890625 2.0127V1.45605C0.890625 0.694336 1.50586 0.0498047 2.29688 0.0498047H14.4844C15.2461 0.0498047 15.8906 0.694336 15.8906 1.45605V2.0127C15.8906 2.24707 15.7734 2.45215 15.5977 2.56934C14.7188 3.27246 14.4258 3.53613 10.5293 6.34863C10.0312 6.7002 9.06445 7.5791 8.39062 7.5498Z" fill="#1BBC9B"/>
</svg>
