<svg width="24" height="32" viewBox="0 0 24 32" fill="none" xmlns="http://www.w3.org/2000/svg">
<path d="M10.6578 30.2287C1.87301 17.593 0.308594 16.2692 0.308594 11.576C0.308594 5.19798 5.42304 0.0233679 11.8612 0.0233679C18.2392 0.0233679 23.4138 5.19798 23.4138 11.576C23.4138 16.2692 21.7893 17.593 13.0044 30.2287C12.4629 31.071 11.1993 31.071 10.6578 30.2287ZM11.8612 16.3896C14.5087 16.3896 16.6748 14.2836 16.6748 11.576C16.6748 8.92852 14.5087 6.7624 11.8612 6.7624C9.15357 6.7624 7.04762 8.92852 7.04762 11.576C7.04762 14.2836 9.15357 16.3896 11.8612 16.3896Z" fill="#14B9D5"/>
</svg>
