<svg width="27" height="36" viewBox="0 0 27 36" fill="none" xmlns="http://www.w3.org/2000/svg">
<path d="M12.2578 34.6611C2.27734 20.3057 0.5 18.8018 0.5 13.4697C0.5 6.22363 6.31055 0.344727 13.625 0.344727C20.8711 0.344727 26.75 6.22363 26.75 13.4697C26.75 18.8018 24.9043 20.3057 14.9238 34.6611C14.3086 35.6182 12.873 35.6182 12.2578 34.6611ZM13.625 18.9385C16.6328 18.9385 19.0938 16.5459 19.0938 13.4697C19.0938 10.4619 16.6328 8.00098 13.625 8.00098C10.5488 8.00098 8.15625 10.4619 8.15625 13.4697C8.15625 16.5459 10.5488 18.9385 13.625 18.9385Z" fill="#F3A46B"/>
</svg>
