<svg width="12" height="16" viewBox="0 0 12 16" fill="none" xmlns="http://www.w3.org/2000/svg">
<path d="M5.03906 15.5518C0.761719 9.39941 0 8.75488 0 6.46973C0 3.36426 2.49023 0.844727 5.625 0.844727C8.73047 0.844727 11.25 3.36426 11.25 6.46973C11.25 8.75488 10.459 9.39941 6.18164 15.5518C5.91797 15.9619 5.30273 15.9619 5.03906 15.5518ZM5.625 8.81348C6.91406 8.81348 7.96875 7.78809 7.96875 6.46973C7.96875 5.18066 6.91406 4.12598 5.625 4.12598C4.30664 4.12598 3.28125 5.18066 3.28125 6.46973C3.28125 7.78809 4.30664 8.81348 5.625 8.81348Z" fill="#1BBC9B"/>
</svg>
