<svg width="16" height="16" viewBox="0 0 16 16" fill="none" xmlns="http://www.w3.org/2000/svg">
<path d="M13.0781 9.5498C14.6016 9.5498 15.8906 10.8389 15.8906 12.3623C15.8906 13.915 14.6016 15.1748 13.0781 15.1748H4.93359C5.31445 14.7061 5.8418 14.0322 6.31055 13.2998H13.0781C13.5762 13.2998 14.0156 12.8896 14.0156 12.3623C14.0156 11.8643 13.5762 11.4248 13.0781 11.4248H10.2656C8.71289 11.4248 7.45312 10.165 7.45312 8.6123C7.45312 7.08887 8.71289 5.7998 10.2656 5.7998H11.584C10.9102 4.8623 10.2656 3.74902 10.2656 2.9873C10.2656 1.43457 11.5254 0.174805 13.0781 0.174805C14.6309 0.174805 15.8906 1.43457 15.8906 2.9873C15.8906 4.54004 13.0781 7.6748 13.0781 7.6748H10.2656C9.73828 7.6748 9.32812 8.11426 9.32812 8.6123C9.32812 9.13965 9.73828 9.5498 10.2656 9.5498H13.0781ZM13.0781 2.0498C12.5508 2.0498 12.1406 2.48926 12.1406 2.9873C12.1406 3.51465 12.5508 3.9248 13.0781 3.9248C13.5762 3.9248 14.0156 3.51465 14.0156 2.9873C14.0156 2.48926 13.5762 2.0498 13.0781 2.0498ZM3.70312 7.6748C5.25586 7.6748 6.51562 8.93457 6.51562 10.4873C6.51562 12.04 3.70312 15.1748 3.70312 15.1748C3.70312 15.1748 0.890625 12.04 0.890625 10.4873C0.890625 8.93457 2.15039 7.6748 3.70312 7.6748ZM3.70312 11.4248C4.20117 11.4248 4.64062 11.0146 4.64062 10.4873C4.64062 9.98926 4.20117 9.5498 3.70312 9.5498C3.17578 9.5498 2.76562 9.98926 2.76562 10.4873C2.76562 11.0146 3.17578 11.4248 3.70312 11.4248Z" fill="#1BBC9B"/>
</svg>
