<svg width="35" height="30" viewBox="0 0 35 30" fill="none" xmlns="http://www.w3.org/2000/svg">
<path d="M3.28125 0.625977C5.05859 0.625977 6.5625 2.12988 6.5625 3.90723C6.5625 5.75293 5.05859 7.18848 3.28125 7.18848C1.43555 7.18848 0 5.75293 0 3.90723C0 2.12988 1.43555 0.625977 3.28125 0.625977ZM3.28125 11.5635C5.05859 11.5635 6.5625 13.0674 6.5625 14.8447C6.5625 16.6904 5.05859 18.126 3.28125 18.126C1.43555 18.126 0 16.6904 0 14.8447C0 13.0674 1.43555 11.5635 3.28125 11.5635ZM3.28125 22.501C5.05859 22.501 6.5625 24.0049 6.5625 25.7822C6.5625 27.6279 5.05859 29.0635 3.28125 29.0635C1.43555 29.0635 0 27.6279 0 25.7822C0 24.0049 1.43555 22.501 3.28125 22.501ZM33.9062 23.5947C34.4531 23.5947 35 24.1416 35 24.6885V26.876C35 27.4912 34.4531 27.9697 33.9062 27.9697H12.0312C11.416 27.9697 10.9375 27.4912 10.9375 26.876V24.6885C10.9375 24.1416 11.416 23.5947 12.0312 23.5947H33.9062ZM33.9062 1.71973C34.4531 1.71973 35 2.2666 35 2.81348V5.00098C35 5.61621 34.4531 6.09473 33.9062 6.09473H12.0312C11.416 6.09473 10.9375 5.61621 10.9375 5.00098V2.81348C10.9375 2.2666 11.416 1.71973 12.0312 1.71973H33.9062ZM33.9062 12.6572C34.4531 12.6572 35 13.2041 35 13.751V15.9385C35 16.5537 34.4531 17.0322 33.9062 17.0322H12.0312C11.416 17.0322 10.9375 16.5537 10.9375 15.9385V13.751C10.9375 13.2041 11.416 12.6572 12.0312 12.6572H33.9062Z" fill="#F3A46B"/>
</svg>
