<svg width="151" height="25" viewBox="0 0 151 25" fill="none" xmlns="http://www.w3.org/2000/svg">
<path d="M15.19 20.7997C15.19 20.9997 15.1 21.1797 14.92 21.3397C14.74 21.4997 14.54 21.5797 14.32 21.5797C14.28 21.5797 14.22 21.5597 14.14 21.5197C14.06 21.4597 14 21.4097 13.96 21.3697C13.12 20.5697 12.23 19.7797 11.29 18.9997C10.35 18.2197 9.4 17.4197 8.44 16.5997C7.48 15.7797 6.53 14.9197 5.59 14.0197C4.67 13.1197 3.8 12.1397 2.98 11.0797C3.24 12.1597 3.59 13.3097 4.03 14.5297C4.47 15.7297 4.89 16.8597 5.29 17.9197C5.71 18.9797 6.07 19.8997 6.37 20.6797C6.67 21.4397 6.82 21.9197 6.82 22.1197C6.82 22.3597 6.72 22.5497 6.52 22.6897C6.34 22.8497 6.15 22.9297 5.95 22.9297C5.83 22.9297 5.7 22.7997 5.56 22.5397C5.42 22.2997 5.26 21.9797 5.08 21.5797C4.92 21.1797 4.75 20.7397 4.57 20.2597C4.41 19.7597 4.25 19.2697 4.09 18.7897C3.93 18.2897 3.78 17.8297 3.64 17.4097C3.5 16.9697 3.39 16.6097 3.31 16.3297L2.5 13.8997C2.32 13.3797 2.14 12.8497 1.96 12.3097C1.78 11.7497 1.61 11.2297 1.45 10.7497C1.31 10.2697 1.19 9.84973 1.09 9.48973C1.01 9.12973 0.97 8.88973 0.97 8.76973C0.97 8.54973 1 8.32973 1.06 8.10973C1.12 7.86973 1.23 7.74973 1.39 7.74973C1.49 7.74973 1.56 7.77973 1.6 7.83973C1.64 7.87973 1.68 7.89973 1.72 7.89973L2.08 7.74973C2.18 7.74973 2.35 7.87973 2.59 8.13973C2.85 8.37973 3.14 8.69973 3.46 9.09973C3.8 9.49973 4.16 9.94973 4.54 10.4497C4.92 10.9497 5.3 11.4397 5.68 11.9197C6.08 12.3997 6.45 12.8497 6.79 13.2697C7.15 13.6897 7.47 14.0197 7.75 14.2597C8.19 14.6597 8.63 15.0397 9.07 15.3997C9.51 15.7597 9.95 16.1297 10.39 16.5097C10.85 16.8697 11.33 17.2597 11.83 17.6797C12.33 18.0997 12.88 18.5797 13.48 19.1197C13.5 19.1397 13.55 19.1497 13.63 19.1497C13.67 19.1497 13.69 19.0997 13.69 18.9997C13.69 18.8997 13.69 18.7797 13.69 18.6397C13.69 18.3597 13.61 17.8597 13.45 17.1397C13.29 16.3997 13.06 15.5497 12.76 14.5897C12.48 13.6097 12.15 12.5697 11.77 11.4697C11.39 10.3497 10.98 9.27973 10.54 8.25973C10.12 7.21973 9.67 6.27973 9.19 5.43973C8.73 4.59973 8.28 3.94972 7.84 3.48972C7.72 3.36973 7.63 3.18973 7.57 2.94973C7.53 2.70973 7.51 2.50973 7.51 2.34973C7.51 2.20973 7.6 2.05973 7.78 1.89973C7.98 1.71973 8.16 1.62973 8.32 1.62973C8.56 1.62973 8.83 1.86973 9.13 2.34973C9.43 2.82973 9.75 3.45973 10.09 4.23973C10.43 4.99973 10.77 5.85973 11.11 6.81973C11.47 7.77973 11.82 8.74973 12.16 9.72973C12.56 10.8897 12.93 12.0397 13.27 13.1797C13.63 14.2997 13.94 15.3497 14.2 16.3297C14.48 17.3097 14.7 18.1897 14.86 18.9697C15.04 19.7497 15.15 20.3597 15.19 20.7997ZM24.7197 18.8197C24.7397 18.8597 24.7497 18.9197 24.7497 18.9997C24.7497 19.1197 24.6597 19.2997 24.4797 19.5397C24.4197 19.6197 24.2897 19.7497 24.0897 19.9297C23.8897 20.1097 23.6197 20.2897 23.2797 20.4697C22.9397 20.6497 22.5197 20.8097 22.0197 20.9497C21.5397 21.0897 20.9697 21.1597 20.3097 21.1597C19.8497 21.1597 19.3997 21.0597 18.9597 20.8597C18.5197 20.6397 18.1297 20.3297 17.7897 19.9297C17.4497 19.5097 17.1697 18.9997 16.9497 18.3997C16.7297 17.7797 16.6197 17.0597 16.6197 16.2397C16.6197 15.4597 16.7197 14.7297 16.9197 14.0497C17.1197 13.3697 17.3697 12.7697 17.6697 12.2497C17.9897 11.7297 18.3397 11.3197 18.7197 11.0197C19.0997 10.7197 19.4697 10.5697 19.8297 10.5697C20.1497 10.5697 20.4697 10.6397 20.7897 10.7797C21.1297 10.8997 21.4297 11.0597 21.6897 11.2597C21.9697 11.4597 22.1897 11.6897 22.3497 11.9497C22.5097 12.1897 22.5897 12.4397 22.5897 12.6997C22.5897 12.9997 22.4497 13.3097 22.1697 13.6297C21.9097 13.9497 21.5897 14.2497 21.2097 14.5297C20.8297 14.7897 20.4497 15.0097 20.0697 15.1897C19.6897 15.3497 19.3897 15.4297 19.1697 15.4297C19.0497 15.4297 18.9397 15.3797 18.8397 15.2797C18.7597 15.1597 18.7197 15.0197 18.7197 14.8597C18.7197 14.5797 18.8397 14.3597 19.0797 14.1997C19.3397 14.0397 19.6197 13.8997 19.9197 13.7797C20.2197 13.6397 20.4897 13.4797 20.7297 13.2997C20.9897 13.1197 21.1197 12.8697 21.1197 12.5497C21.1197 12.5097 21.0697 12.4097 20.9697 12.2497C20.8697 12.0897 20.5997 12.0097 20.1597 12.0097C19.9597 12.0097 19.7297 12.1297 19.4697 12.3697C19.2097 12.5897 18.9597 12.8997 18.7197 13.2997C18.4797 13.6797 18.2797 14.1397 18.1197 14.6797C17.9597 15.1997 17.8797 15.7697 17.8797 16.3897C17.8797 16.9097 17.9697 17.3797 18.1497 17.7997C18.3497 18.2197 18.5997 18.5797 18.8997 18.8797C19.1997 19.1597 19.5497 19.3797 19.9497 19.5397C20.3497 19.6997 20.7597 19.7797 21.1797 19.7797C21.4797 19.7797 21.7997 19.7197 22.1397 19.5997C22.4997 19.4597 22.8297 19.3197 23.1297 19.1797C23.4497 19.0197 23.7197 18.8797 23.9397 18.7597C24.1797 18.6197 24.3297 18.5497 24.3897 18.5497C24.4497 18.5497 24.5097 18.5797 24.5697 18.6397C24.6497 18.6997 24.6997 18.7597 24.7197 18.8197ZM35.5987 19.1797C35.5987 19.5597 35.4787 19.8197 35.2387 19.9597C35.0187 20.0997 34.7787 20.1697 34.5187 20.1697C34.0587 20.1697 33.5387 19.9697 32.9587 19.5697C32.3787 19.1497 31.7687 18.6797 31.1287 18.1597C31.1087 18.1997 31.0487 18.4197 30.9487 18.8197C30.8687 19.1997 30.7487 19.6197 30.5887 20.0797C30.4487 20.5397 30.2687 20.9597 30.0487 21.3397C29.8287 21.7197 29.5787 21.9097 29.2987 21.9097C29.0987 21.9097 28.9387 21.8397 28.8187 21.6997C28.6987 21.5397 28.6387 21.4297 28.6387 21.3697C28.6387 21.2297 28.7087 20.9697 28.8487 20.5897C28.9887 20.1897 29.1387 19.7697 29.2987 19.3297C29.4587 18.8697 29.6087 18.4397 29.7487 18.0397C29.8887 17.6397 29.9587 17.3497 29.9587 17.1697C29.9587 17.0897 29.7987 16.8397 29.4787 16.4197C29.1587 15.9997 28.8087 15.5097 28.4287 14.9497C28.0487 14.3697 27.6987 13.7597 27.3787 13.1197C27.0587 12.4797 26.8987 11.8897 26.8987 11.3497C26.8987 11.2097 26.9587 11.0697 27.0787 10.9297C27.1987 10.7897 27.3087 10.7197 27.4087 10.7197C27.5287 10.7197 27.6887 10.7697 27.8887 10.8697C28.1087 10.9497 28.2387 11.0697 28.2787 11.2297C28.4787 11.8897 28.7387 12.5997 29.0587 13.3597C29.3787 14.0997 29.8587 14.8197 30.4987 15.5197C30.5587 15.2997 30.6287 14.9997 30.7087 14.6197C30.7887 14.2397 30.8787 13.8297 30.9787 13.3897C31.0787 12.9497 31.1787 12.5097 31.2787 12.0697C31.3987 11.6297 31.5087 11.2297 31.6087 10.8697C31.7287 10.5097 31.8387 10.2197 31.9387 9.99973C32.0387 9.77973 32.1387 9.66973 32.2387 9.66973C32.3387 9.66973 32.4887 9.70973 32.6887 9.78973C32.9087 9.84973 33.0187 9.98973 33.0187 10.2097C33.0187 10.2097 32.9887 10.3797 32.9287 10.7197C32.8687 11.0397 32.7887 11.4297 32.6887 11.8897C32.5887 12.3497 32.4787 12.8497 32.3587 13.3897C32.2387 13.9097 32.1187 14.3797 31.9987 14.7997C31.9787 14.8597 31.9387 14.9697 31.8787 15.1297C31.8387 15.2897 31.7887 15.4597 31.7287 15.6397C31.6887 15.8197 31.6487 15.9897 31.6087 16.1497C31.5687 16.2897 31.5487 16.3797 31.5487 16.4197C31.5487 16.5997 31.6887 16.8197 31.9687 17.0797C32.2687 17.3197 32.5987 17.5597 32.9587 17.7997C33.3187 18.0197 33.6587 18.2097 33.9787 18.3697C34.3187 18.5297 34.5287 18.6097 34.6087 18.6097C34.6687 18.6097 34.7487 18.5997 34.8487 18.5797C34.9487 18.5597 35.0287 18.5497 35.0887 18.5497C35.2487 18.5497 35.3687 18.6397 35.4487 18.8197C35.5487 18.9997 35.5987 19.1197 35.5987 19.1797ZM45.8043 8.40973C45.5443 8.70973 45.1743 9.00973 44.6943 9.30973C44.2143 9.58973 43.7343 9.84973 43.2543 10.0897C42.7743 10.3297 42.3543 10.5397 41.9943 10.7197C41.6343 10.8797 41.4543 10.9897 41.4543 11.0497C41.4543 11.1097 41.4943 11.2897 41.5743 11.5897C41.6543 11.8897 41.7443 12.2497 41.8443 12.6697C41.9643 13.0697 42.0843 13.4897 42.2043 13.9297C42.3243 14.3697 42.4243 14.7597 42.5043 15.0997C42.5443 15.2997 42.5943 15.5597 42.6543 15.8797C42.7143 16.1997 42.7643 16.5197 42.8043 16.8397C42.8643 17.1597 42.9143 17.4497 42.9543 17.7097C42.9943 17.9497 43.0143 18.0797 43.0143 18.0997C43.0143 18.3997 42.9643 18.7097 42.8643 19.0297C42.7643 19.3497 42.6043 19.5097 42.3843 19.5097C42.2643 19.5097 42.1543 19.4597 42.0543 19.3597C41.9543 19.2597 41.8643 19.1497 41.7843 19.0297C41.7043 18.8897 41.6443 18.7597 41.6043 18.6397C41.5643 18.5197 41.5443 18.4297 41.5443 18.3697C41.5443 18.3297 41.5443 18.2697 41.5443 18.1897C41.5643 18.1097 41.5743 18.0197 41.5743 17.9197C41.5743 17.5397 41.5143 16.9897 41.3943 16.2697C41.3543 16.0497 41.2743 15.7097 41.1543 15.2497C41.0343 14.7897 40.9143 14.3197 40.7943 13.8397C40.6543 13.2797 40.4943 12.6697 40.3143 12.0097C40.2343 11.7297 40.1843 11.5897 40.1643 11.5897C40.0243 11.5897 39.7843 11.6797 39.4443 11.8597C39.1243 12.0197 38.7543 12.2297 38.3343 12.4897C37.9143 12.7297 37.4743 12.9997 37.0143 13.2997C36.5543 13.5797 36.1243 13.8497 35.7243 14.1097C35.3243 14.3497 34.9843 14.5597 34.7043 14.7397C34.4043 14.8997 34.2243 14.9797 34.1643 14.9797C33.9043 14.9797 33.6943 14.8897 33.5343 14.7097C33.3743 14.5297 33.2943 14.3297 33.2943 14.1097C33.2943 13.9897 33.4643 13.8197 33.8043 13.5997C34.1243 13.3597 34.5343 13.0997 35.0343 12.8197C35.5143 12.5397 36.0443 12.2497 36.6243 11.9497C37.1843 11.6497 37.7043 11.3797 38.1843 11.1397C38.6843 10.8997 39.0943 10.6997 39.4143 10.5397C39.7543 10.3797 39.9243 10.2997 39.9243 10.2997C39.7443 9.37973 39.5943 8.55973 39.4743 7.83973C39.3743 7.21973 39.2743 6.64973 39.1743 6.12973C39.0943 5.60973 39.0543 5.32973 39.0543 5.28972C39.0543 5.02973 39.1043 4.83973 39.2043 4.71973C39.3243 4.57973 39.4543 4.50973 39.5943 4.50973C39.8143 4.50973 39.9543 4.65973 40.0143 4.95973C40.2343 6.03973 40.4343 6.99973 40.6143 7.83973C40.8143 8.67973 41.0043 9.35973 41.1843 9.87973C41.3643 9.83973 41.6743 9.72973 42.1143 9.54973C42.5543 9.34973 43.0143 9.13973 43.4943 8.91973C43.9743 8.69973 44.4043 8.50973 44.7843 8.34973C45.1843 8.16973 45.4143 8.07973 45.4743 8.07973C45.5943 8.07973 45.6643 8.11973 45.6843 8.19973C45.7243 8.27973 45.7643 8.34973 45.8043 8.40973ZM69.2763 23.2897C69.2963 23.3697 69.3063 23.4397 69.3063 23.4997C69.3063 23.5797 69.3063 23.6397 69.3063 23.6797C69.3063 23.8797 69.2563 24.0197 69.1563 24.0997C69.0763 24.1797 68.9063 24.2197 68.6463 24.2197C68.4063 24.2197 68.2463 24.1797 68.1663 24.0997C68.0463 23.9797 67.8863 23.6697 67.6863 23.1697C67.4863 22.6697 67.2763 22.0797 67.0563 21.3997C66.8363 20.7197 66.6163 19.9897 66.3963 19.2097C66.1963 18.4297 66.0163 17.6897 65.8563 16.9897C65.6363 17.0897 65.3363 17.1997 64.9563 17.3197C64.5763 17.4197 64.1863 17.5197 63.7863 17.6197C63.3263 17.7197 62.8463 17.8297 62.3463 17.9497C62.1663 18.8097 62.0263 19.5497 61.9263 20.1697C61.8463 20.7697 61.7663 21.2697 61.6863 21.6697C61.6263 22.0497 61.5363 22.3297 61.4163 22.5097C61.3163 22.7097 61.1463 22.8097 60.9063 22.8097C60.7463 22.8097 60.6063 22.7197 60.4863 22.5397C60.3663 22.3597 60.3063 22.0897 60.3063 21.7297C60.3063 21.5497 60.3563 21.1297 60.4563 20.4697C60.5563 19.8097 60.6663 19.0797 60.7863 18.2797C60.9063 17.4597 61.0263 16.6497 61.1463 15.8497C61.2663 15.0497 61.3463 14.4197 61.3863 13.9597C61.4063 13.7197 61.4663 13.3297 61.5663 12.7897C61.6863 12.2497 61.8063 11.6997 61.9263 11.1397C62.0463 10.5597 62.1663 10.0397 62.2863 9.57973C62.4063 9.11973 62.4863 8.85973 62.5263 8.79973C62.8463 8.05973 63.0463 7.29973 63.1263 6.51973C63.2263 5.73973 63.2963 5.02973 63.3363 4.38973C63.3963 3.72973 63.4863 3.19973 63.6063 2.79972C63.7263 2.37973 63.9763 2.16973 64.3563 2.16973C64.4563 2.16973 64.5563 2.24973 64.6563 2.40973C64.7763 2.56973 64.8863 2.75973 64.9863 2.97973C65.0863 3.19973 65.1663 3.41973 65.2263 3.63973C65.2863 3.83973 65.3263 3.99973 65.3463 4.11973C65.3663 4.23973 65.3863 4.47973 65.4063 4.83973C65.4463 5.19973 65.4763 5.59973 65.4963 6.03973C65.5363 6.45973 65.5663 6.87973 65.5863 7.29973C65.6263 7.69973 65.6563 8.00973 65.6763 8.22973C65.7363 8.88973 65.8263 9.62973 65.9463 10.4497C66.0863 11.2697 66.2262 12.0397 66.3662 12.7597C66.5062 13.4797 66.6363 14.0897 66.7563 14.5897C66.8763 15.0697 66.9663 15.3097 67.0263 15.3097C67.1063 15.3097 67.2063 15.2897 67.3263 15.2497C67.4663 15.2097 67.5963 15.1897 67.7163 15.1897C67.8763 15.1897 67.9563 15.2697 67.9563 15.4297C67.9563 15.5897 67.9163 15.7197 67.8363 15.8197C67.7563 15.9197 67.6663 16.0097 67.5663 16.0897C67.4863 16.1697 67.4063 16.2397 67.3263 16.2997C67.2663 16.3597 67.2363 16.4297 67.2363 16.5097C67.2363 16.6697 67.3263 17.0797 67.5063 17.7397L67.9863 19.5097C68.0263 19.6697 68.1163 19.9397 68.2563 20.3197C68.3963 20.6997 68.5363 21.0997 68.6763 21.5197C68.8363 21.9197 68.9763 22.2897 69.0963 22.6297C69.2163 22.9897 69.2763 23.2097 69.2763 23.2897ZM62.6162 16.4197C62.7363 16.4197 62.9563 16.3897 63.2763 16.3297C63.5963 16.2497 63.9263 16.1597 64.2663 16.0597C64.6063 15.9597 64.9063 15.8597 65.1663 15.7597C65.4263 15.6597 65.5563 15.5797 65.5563 15.5197C65.5563 15.4597 65.5163 15.3097 65.4363 15.0697C65.3763 14.8097 65.2963 14.4897 65.1963 14.1097C65.1163 13.7097 65.0263 13.2597 64.9263 12.7597C64.8263 12.2597 64.7363 11.7297 64.6563 11.1697C64.6163 10.8097 64.5663 10.3197 64.5063 9.69973C64.4463 9.07973 64.3863 8.46973 64.3263 7.86973C64.2663 7.24973 64.2163 6.71973 64.1763 6.27973C64.1363 5.83973 64.1163 5.61973 64.1163 5.61973C64.1163 5.61973 64.0863 5.76973 64.0263 6.06973C63.9663 6.34973 63.8963 6.66973 63.8163 7.02973C63.7563 7.36973 63.6963 7.69973 63.6363 8.01973C63.5963 8.31973 63.5763 8.48973 63.5763 8.52973V9.36973C63.5763 9.40973 63.5463 9.58973 63.4863 9.90973C63.4463 10.2097 63.3863 10.5997 63.3063 11.0797C63.2263 11.5397 63.1363 12.0497 63.0363 12.6097C62.9563 13.1497 62.8763 13.6697 62.7963 14.1697C62.7163 14.6697 62.6463 15.1197 62.5863 15.5197C62.5463 15.8997 62.5263 16.1597 62.5263 16.2997C62.5263 16.3797 62.5563 16.4197 62.6162 16.4197ZM80.5338 17.1397C80.5338 17.2397 80.4838 17.3397 80.3838 17.4397C80.3038 17.5197 80.2538 17.6097 80.2338 17.7097C80.2338 17.9297 80.2738 18.1397 80.3538 18.3397C80.4538 18.5397 80.5038 18.7797 80.5038 19.0597C80.5038 19.3197 80.4238 19.4497 80.2638 19.4497C80.0638 19.4497 79.9138 19.4797 79.8138 19.5397C79.7338 19.5797 79.5838 19.6197 79.3638 19.6597C79.2438 19.6597 79.1138 19.5497 78.9738 19.3297C78.8938 19.2297 78.8238 19.1097 78.7637 18.9697C78.7637 18.9497 78.7038 18.9897 78.5838 19.0897C78.4838 19.1897 78.3038 19.3097 78.0438 19.4497C77.8038 19.5697 77.4638 19.6897 77.0238 19.8097C76.6038 19.9097 76.0638 19.9597 75.4038 19.9597C74.8438 19.9597 74.3538 19.8397 73.9338 19.5997C73.5138 19.3397 73.1638 19.0097 72.8838 18.6097C72.6238 18.2097 72.4238 17.7597 72.2838 17.2597C72.1638 16.7397 72.1038 16.2197 72.1038 15.6997C72.1038 15.2197 72.1538 14.7697 72.2538 14.3497C72.3738 13.9097 72.5338 13.5297 72.7338 13.2097C72.9338 12.8697 73.1838 12.5997 73.4838 12.3997C73.7838 12.1997 74.1338 12.0997 74.5338 12.0997C74.9138 12.0997 75.2938 12.2197 75.6738 12.4597C76.0538 12.6997 76.3938 12.9597 76.6938 13.2397C76.9938 13.5197 77.2338 13.7797 77.4138 14.0197C77.6138 14.2397 77.7138 14.3497 77.7138 14.3497C77.4338 12.7897 77.1838 11.3797 76.9638 10.1197C76.8638 9.57973 76.7638 9.04973 76.6638 8.52973C76.5838 7.98973 76.5038 7.50973 76.4238 7.08973C76.3438 6.66973 76.2738 6.31973 76.2138 6.03973C76.1738 5.73973 76.1538 5.55973 76.1538 5.49973C76.1338 5.37973 76.1138 5.16973 76.0938 4.86972C76.0738 4.54973 76.0538 4.21973 76.0338 3.87973C76.0138 3.53973 75.9938 3.22973 75.9738 2.94973C75.9538 2.66973 75.9338 2.48973 75.9138 2.40973C75.8538 2.20973 75.7738 1.95972 75.6738 1.65973C75.5938 1.35973 75.5538 1.18973 75.5538 1.14973C75.5538 1.04973 75.6038 0.929725 75.7038 0.789726C75.8038 0.629725 75.9338 0.549725 76.0938 0.549725C76.2138 0.549725 76.3238 0.559725 76.4238 0.579725C76.5238 0.599726 76.6138 0.659726 76.6938 0.759726C76.7738 0.859726 76.8438 1.01973 76.9038 1.23973C76.9838 1.43973 77.0538 1.72972 77.1138 2.10972C77.1338 2.30973 77.1938 2.68973 77.2938 3.24973C77.3938 3.80973 77.4938 4.41973 77.5938 5.07973C77.6938 5.73973 77.7938 6.36973 77.8938 6.96973C77.9938 7.56973 78.0638 8.00973 78.1038 8.28973C78.2038 9.04973 78.3338 9.87973 78.4938 10.7797C78.6738 11.6597 78.8537 12.5097 79.0338 13.3297C79.2138 14.1497 79.3938 14.8797 79.5738 15.5197C79.7538 16.1397 79.9138 16.5597 80.0538 16.7797C80.0938 16.8597 80.1738 16.9197 80.2938 16.9597C80.4138 16.9797 80.4938 17.0397 80.5338 17.1397ZM78.3138 17.7397C78.2938 17.6797 78.1638 17.4297 77.9238 16.9897C77.7038 16.5297 77.4138 16.0397 77.0538 15.5197C76.7138 14.9797 76.3238 14.4997 75.8838 14.0797C75.4638 13.6597 75.0538 13.4497 74.6538 13.4497C74.3138 13.4497 74.0338 13.7097 73.8138 14.2297C73.6138 14.7497 73.5138 15.3497 73.5138 16.0297C73.5138 16.7897 73.7338 17.3997 74.1738 17.8597C74.6338 18.3197 75.1438 18.5497 75.7038 18.5497C76.1838 18.5497 76.6838 18.4697 77.2038 18.3097C77.7238 18.1497 78.0938 17.9597 78.3138 17.7397ZM88.6743 11.4097C88.6743 11.4697 88.6243 11.7297 88.5243 12.1897C88.4243 12.6497 88.3243 13.1697 88.2243 13.7497C88.1643 14.0897 88.0643 14.5997 87.9243 15.2797C87.8043 15.9397 87.7443 16.9497 87.7443 18.3097C87.7443 18.3497 87.7343 18.4597 87.7143 18.6397C87.7143 18.7997 87.6843 18.9697 87.6243 19.1497C87.5843 19.3297 87.5143 19.4997 87.4143 19.6597C87.3143 19.7997 87.1643 19.8697 86.9643 19.8697C86.7843 19.8697 86.5843 19.7897 86.3643 19.6297C85.8643 19.2697 85.4043 18.8497 84.9843 18.3697C84.5643 17.8897 84.2043 17.3697 83.9043 16.8097C83.6043 16.2297 83.3743 15.6297 83.2143 15.0097C83.0543 14.3897 82.9743 13.7597 82.9743 13.1197C82.9743 13.0397 83.0243 12.9697 83.1243 12.9097C83.2443 12.8297 83.3343 12.7897 83.3943 12.7897C83.6943 12.7897 83.9243 12.9597 84.0843 13.2997C84.2643 13.6397 84.4343 14.0497 84.5943 14.5297C84.7743 15.0097 84.9743 15.5197 85.1943 16.0597C85.4343 16.5797 85.7843 17.0297 86.2443 17.4097C86.3043 17.3297 86.3543 17.1797 86.3943 16.9597C86.4343 16.7397 86.4643 16.5497 86.4843 16.3897C86.5043 16.2497 86.5343 15.9797 86.5743 15.5797C86.6143 15.1597 86.6543 14.7197 86.6943 14.2597C86.7543 13.7997 86.7943 13.3597 86.8143 12.9397C86.8543 12.5197 86.8743 12.2297 86.8743 12.0697C86.8743 11.9497 86.8843 11.8097 86.9043 11.6497C86.9243 11.4897 86.9643 11.3397 87.0243 11.1997C87.1043 11.0597 87.2043 10.9397 87.3243 10.8397C87.4443 10.7397 87.6043 10.6897 87.8043 10.6897C87.9043 10.6897 88.0743 10.7597 88.3143 10.8997C88.5543 11.0197 88.6743 11.1897 88.6743 11.4097ZM99.6611 18.8197C99.6811 18.8597 99.6911 18.9197 99.6911 18.9997C99.6911 19.1197 99.6011 19.2997 99.4211 19.5397C99.3611 19.6197 99.2311 19.7497 99.0311 19.9297C98.8311 20.1097 98.5611 20.2897 98.2211 20.4697C97.8811 20.6497 97.4611 20.8097 96.9611 20.9497C96.4811 21.0897 95.9111 21.1597 95.2511 21.1597C94.7911 21.1597 94.3411 21.0597 93.9011 20.8597C93.4611 20.6397 93.0711 20.3297 92.7311 19.9297C92.3911 19.5097 92.1111 18.9997 91.8911 18.3997C91.6711 17.7797 91.5611 17.0597 91.5611 16.2397C91.5611 15.4597 91.6611 14.7297 91.8611 14.0497C92.0611 13.3697 92.3111 12.7697 92.6111 12.2497C92.9311 11.7297 93.2811 11.3197 93.6611 11.0197C94.0411 10.7197 94.4111 10.5697 94.7711 10.5697C95.0911 10.5697 95.4111 10.6397 95.7311 10.7797C96.0711 10.8997 96.3711 11.0597 96.6311 11.2597C96.9111 11.4597 97.1311 11.6897 97.2911 11.9497C97.4511 12.1897 97.5311 12.4397 97.5311 12.6997C97.5311 12.9997 97.3911 13.3097 97.1111 13.6297C96.8511 13.9497 96.5311 14.2497 96.1511 14.5297C95.7711 14.7897 95.3911 15.0097 95.0111 15.1897C94.6311 15.3497 94.3311 15.4297 94.1111 15.4297C93.9911 15.4297 93.8811 15.3797 93.7811 15.2797C93.7011 15.1597 93.6611 15.0197 93.6611 14.8597C93.6611 14.5797 93.7811 14.3597 94.0211 14.1997C94.2811 14.0397 94.5611 13.8997 94.8611 13.7797C95.1611 13.6397 95.4311 13.4797 95.6711 13.2997C95.9311 13.1197 96.0611 12.8697 96.0611 12.5497C96.0611 12.5097 96.0111 12.4097 95.9111 12.2497C95.8111 12.0897 95.5411 12.0097 95.1011 12.0097C94.9011 12.0097 94.6711 12.1297 94.4111 12.3697C94.1511 12.5897 93.9011 12.8997 93.6611 13.2997C93.4211 13.6797 93.2211 14.1397 93.0611 14.6797C92.9011 15.1997 92.8211 15.7697 92.8211 16.3897C92.8211 16.9097 92.9111 17.3797 93.0911 17.7997C93.2911 18.2197 93.5411 18.5797 93.8411 18.8797C94.1411 19.1597 94.4911 19.3797 94.8911 19.5397C95.2911 19.6997 95.7011 19.7797 96.1211 19.7797C96.4211 19.7797 96.7411 19.7197 97.0811 19.5997C97.4411 19.4597 97.7711 19.3197 98.0711 19.1797C98.3911 19.0197 98.6611 18.8797 98.8811 18.7597C99.1211 18.6197 99.2711 18.5497 99.3311 18.5497C99.3911 18.5497 99.4511 18.5797 99.5111 18.6397C99.5911 18.6997 99.6411 18.7597 99.6611 18.8197ZM110.78 18.2797C110.78 18.3997 110.74 18.5197 110.66 18.6397C110.58 18.7597 110.48 18.8697 110.36 18.9697C110.26 19.0697 110.14 19.1597 110 19.2397C109.88 19.2997 109.77 19.3297 109.67 19.3297C109.33 19.3297 108.89 19.2597 108.35 19.1197C107.83 18.9597 107.41 18.7197 107.09 18.3997C106.75 18.0597 106.45 17.6597 106.19 17.1997C105.93 16.7197 105.64 16.0197 105.32 15.0997C105.1 15.9797 104.84 16.8497 104.54 17.7097C104.26 18.5697 103.8 19.3597 103.16 20.0797C103.12 20.1197 103.06 20.1397 102.98 20.1397C102.84 20.1397 102.69 20.0697 102.53 19.9297C102.37 19.7897 102.29 19.6497 102.29 19.5097C102.29 19.3697 102.27 19.0497 102.23 18.5497C102.21 18.0297 102.18 17.4597 102.14 16.8397C102.1 16.1997 102.06 15.5597 102.02 14.9197C102 14.2597 101.99 13.7197 101.99 13.2997C101.99 13.0997 102 12.8397 102.02 12.5197C102.04 12.1797 102.1 11.8897 102.2 11.6497C102.22 11.6097 102.29 11.5297 102.41 11.4097C102.55 11.2897 102.7 11.2297 102.86 11.2297C103 11.2297 103.08 11.3197 103.1 11.4997C103.12 11.6797 103.13 11.8797 103.13 12.0997V16.8397C103.13 16.9397 103.14 17.0797 103.16 17.2597C103.2 17.4397 103.25 17.5697 103.31 17.6497C103.53 17.1697 103.73 16.6097 103.91 15.9697C104.11 15.3097 104.3 14.6897 104.48 14.1097C104.66 13.5097 104.84 13.0097 105.02 12.6097C105.2 12.1897 105.38 11.9797 105.56 11.9797C105.76 11.9797 105.92 12.0197 106.04 12.0997C106.16 12.1797 106.26 12.3397 106.34 12.5797C106.44 13.1597 106.52 13.6797 106.58 14.1397C106.64 14.5797 106.71 14.9797 106.79 15.3397C106.89 15.6997 107.02 16.0397 107.18 16.3597C107.36 16.6597 107.6 16.9397 107.9 17.1997C108.18 17.4597 108.49 17.6497 108.83 17.7697C109.19 17.8897 109.5 17.9497 109.76 17.9497C109.88 17.9497 110.01 17.9297 110.15 17.8897C110.29 17.8297 110.39 17.7997 110.45 17.7997C110.53 17.7997 110.6 17.8697 110.66 18.0097C110.74 18.1497 110.78 18.2397 110.78 18.2797ZM120.277 8.40973C120.017 8.70973 119.647 9.00973 119.167 9.30973C118.687 9.58973 118.207 9.84973 117.727 10.0897C117.247 10.3297 116.827 10.5397 116.467 10.7197C116.107 10.8797 115.927 10.9897 115.927 11.0497C115.927 11.1097 115.967 11.2897 116.047 11.5897C116.127 11.8897 116.217 12.2497 116.317 12.6697C116.437 13.0697 116.557 13.4897 116.677 13.9297C116.797 14.3697 116.897 14.7597 116.977 15.0997C117.017 15.2997 117.067 15.5597 117.127 15.8797C117.187 16.1997 117.237 16.5197 117.277 16.8397C117.337 17.1597 117.387 17.4497 117.427 17.7097C117.467 17.9497 117.487 18.0797 117.487 18.0997C117.487 18.3997 117.437 18.7097 117.337 19.0297C117.237 19.3497 117.077 19.5097 116.857 19.5097C116.737 19.5097 116.627 19.4597 116.527 19.3597C116.427 19.2597 116.337 19.1497 116.257 19.0297C116.177 18.8897 116.117 18.7597 116.077 18.6397C116.037 18.5197 116.017 18.4297 116.017 18.3697C116.017 18.3297 116.017 18.2697 116.017 18.1897C116.037 18.1097 116.047 18.0197 116.047 17.9197C116.047 17.5397 115.987 16.9897 115.867 16.2697C115.827 16.0497 115.747 15.7097 115.627 15.2497C115.507 14.7897 115.387 14.3197 115.267 13.8397C115.127 13.2797 114.967 12.6697 114.787 12.0097C114.707 11.7297 114.657 11.5897 114.637 11.5897C114.497 11.5897 114.257 11.6797 113.917 11.8597C113.597 12.0197 113.227 12.2297 112.807 12.4897C112.387 12.7297 111.947 12.9997 111.487 13.2997C111.027 13.5797 110.597 13.8497 110.197 14.1097C109.797 14.3497 109.457 14.5597 109.177 14.7397C108.877 14.8997 108.697 14.9797 108.637 14.9797C108.377 14.9797 108.167 14.8897 108.007 14.7097C107.847 14.5297 107.767 14.3297 107.767 14.1097C107.767 13.9897 107.937 13.8197 108.277 13.5997C108.597 13.3597 109.007 13.0997 109.507 12.8197C109.987 12.5397 110.517 12.2497 111.097 11.9497C111.657 11.6497 112.177 11.3797 112.657 11.1397C113.157 10.8997 113.567 10.6997 113.887 10.5397C114.227 10.3797 114.397 10.2997 114.397 10.2997C114.217 9.37973 114.067 8.55973 113.947 7.83973C113.847 7.21973 113.747 6.64973 113.647 6.12973C113.567 5.60973 113.527 5.32973 113.527 5.28972C113.527 5.02973 113.577 4.83973 113.677 4.71973C113.797 4.57973 113.927 4.50973 114.067 4.50973C114.287 4.50973 114.427 4.65973 114.487 4.95973C114.707 6.03973 114.907 6.99973 115.087 7.83973C115.287 8.67973 115.477 9.35973 115.657 9.87973C115.837 9.83973 116.147 9.72973 116.587 9.54973C117.027 9.34973 117.487 9.13973 117.967 8.91973C118.447 8.69973 118.877 8.50973 119.257 8.34973C119.657 8.16973 119.887 8.07973 119.947 8.07973C120.067 8.07973 120.137 8.11973 120.157 8.19973C120.197 8.27973 120.237 8.34973 120.277 8.40973ZM131.777 16.9897C131.777 17.1697 131.657 17.3597 131.417 17.5597C131.177 17.7597 130.897 17.9497 130.577 18.1297C130.257 18.2897 129.927 18.4297 129.587 18.5497C129.267 18.6697 129.027 18.7297 128.867 18.7297C128.687 18.7297 128.487 18.6797 128.267 18.5797C128.067 18.4797 127.867 18.3597 127.667 18.2197C127.487 18.0797 127.327 17.9497 127.187 17.8297C127.047 17.7097 126.957 17.6297 126.917 17.5897C126.857 17.6497 126.767 17.7697 126.647 17.9497C126.527 18.1297 126.377 18.3297 126.197 18.5497C126.037 18.7497 125.857 18.9297 125.657 19.0897C125.477 19.2497 125.287 19.3297 125.087 19.3297C124.567 19.3297 124.117 19.0497 123.737 18.4897C123.357 17.9297 123.037 17.2897 122.777 16.5697C122.537 15.8497 122.347 15.1597 122.207 14.4997C122.087 13.8197 122.027 13.3597 122.027 13.1197C122.027 12.9797 122.097 12.8697 122.237 12.7897C122.397 12.6897 122.517 12.6397 122.597 12.6397C122.877 12.6397 123.067 12.7397 123.167 12.9397C123.267 13.1197 123.317 13.3197 123.317 13.5397C123.317 13.7197 123.367 14.0397 123.467 14.4997C123.587 14.9597 123.727 15.4297 123.887 15.9097C124.047 16.3897 124.217 16.8197 124.397 17.1997C124.577 17.5597 124.737 17.7397 124.877 17.7397C125.137 17.7397 125.357 17.5797 125.537 17.2597C125.737 16.9197 125.897 16.5397 126.017 16.1197C126.137 15.6797 126.227 15.2697 126.287 14.8897C126.347 14.4897 126.377 14.2297 126.377 14.1097C126.377 14.0897 126.377 14.0297 126.377 13.9297C126.397 13.8097 126.417 13.6897 126.437 13.5697C126.457 13.4497 126.467 13.3397 126.467 13.2397C126.487 13.1397 126.497 13.0697 126.497 13.0297C126.497 12.8897 126.467 12.7997 126.407 12.7597C126.347 12.6997 126.317 12.5897 126.317 12.4297C126.317 12.3097 126.377 12.1997 126.497 12.0997C126.617 11.9797 126.877 11.9197 127.277 11.9197C127.437 11.9197 127.557 11.9697 127.637 12.0697C127.737 12.1497 127.807 12.2497 127.847 12.3697C127.887 12.4897 127.907 12.6097 127.907 12.7297C127.927 12.8297 127.937 12.8997 127.937 12.9397C127.937 12.9597 127.927 13.0997 127.907 13.3597C127.887 13.6197 127.867 13.9097 127.847 14.2297C127.847 14.5297 127.837 14.8197 127.817 15.0997C127.797 15.3797 127.787 15.5497 127.787 15.6097C127.787 15.6697 127.817 15.7897 127.877 15.9697C127.937 16.1497 128.007 16.3397 128.087 16.5397C128.187 16.7197 128.297 16.8897 128.417 17.0497C128.537 17.1897 128.667 17.2597 128.807 17.2597C129.047 17.2597 129.267 17.2297 129.467 17.1697C129.687 17.0897 129.887 17.0097 130.067 16.9297C130.267 16.8297 130.447 16.7497 130.607 16.6897C130.767 16.6097 130.917 16.5697 131.057 16.5697C131.237 16.5697 131.397 16.6097 131.537 16.6897C131.697 16.7697 131.777 16.8697 131.777 16.9897ZM140.061 12.8197C140.061 12.9597 140.001 13.0797 139.881 13.1797C139.761 13.2597 139.621 13.3297 139.461 13.3897C139.301 13.4497 139.141 13.4997 138.981 13.5397C138.821 13.5597 138.691 13.5697 138.591 13.5697C138.291 13.5697 138.091 13.5497 137.991 13.5097C137.891 13.4697 137.811 13.4497 137.751 13.4497C137.251 13.4497 136.851 13.4897 136.551 13.5697C136.251 13.6497 136.011 13.7797 135.831 13.9597C135.671 14.1397 135.561 14.3697 135.501 14.6497C135.461 14.9097 135.441 15.2297 135.441 15.6097C135.441 16.2497 135.461 16.7597 135.501 17.1397C135.561 17.5197 135.611 17.8297 135.651 18.0697C135.711 18.3097 135.761 18.4997 135.801 18.6397C135.861 18.7597 135.891 18.8797 135.891 18.9997C135.891 19.1597 135.801 19.3297 135.621 19.5097C135.461 19.6897 135.311 19.7797 135.171 19.7797C134.931 19.7797 134.711 19.5697 134.511 19.1497C134.331 18.7097 134.171 18.1997 134.031 17.6197C133.911 17.0197 133.811 16.4297 133.731 15.8497C133.651 15.2697 133.611 14.8297 133.611 14.5297C133.611 14.1897 133.641 13.8697 133.701 13.5697C133.761 13.2497 133.841 12.9797 133.941 12.7597C134.041 12.5197 134.151 12.3297 134.271 12.1897C134.391 12.0497 134.511 11.9797 134.631 11.9797C134.731 11.9797 134.811 12.0197 134.871 12.0997C134.931 12.1597 134.981 12.2397 135.021 12.3397C135.061 12.4197 135.101 12.4997 135.141 12.5797C135.201 12.6397 135.271 12.6697 135.351 12.6697C135.531 12.6697 135.821 12.5797 136.221 12.3997C136.621 12.2197 137.111 12.1297 137.691 12.1297C138.231 12.1297 138.631 12.1497 138.891 12.1897C139.171 12.2097 139.441 12.2697 139.701 12.3697C139.761 12.3897 139.831 12.4397 139.911 12.5197C140.011 12.5797 140.061 12.6797 140.061 12.8197ZM150.813 18.8197C150.833 18.8597 150.843 18.9197 150.843 18.9997C150.843 19.1197 150.753 19.2997 150.573 19.5397C150.513 19.6197 150.383 19.7497 150.183 19.9297C149.983 20.1097 149.713 20.2897 149.373 20.4697C149.033 20.6497 148.613 20.8097 148.113 20.9497C147.633 21.0897 147.063 21.1597 146.403 21.1597C145.943 21.1597 145.493 21.0597 145.053 20.8597C144.613 20.6397 144.223 20.3297 143.883 19.9297C143.543 19.5097 143.263 18.9997 143.043 18.3997C142.823 17.7797 142.713 17.0597 142.713 16.2397C142.713 15.4597 142.813 14.7297 143.013 14.0497C143.213 13.3697 143.463 12.7697 143.763 12.2497C144.083 11.7297 144.433 11.3197 144.813 11.0197C145.193 10.7197 145.563 10.5697 145.923 10.5697C146.243 10.5697 146.563 10.6397 146.883 10.7797C147.223 10.8997 147.523 11.0597 147.783 11.2597C148.063 11.4597 148.283 11.6897 148.443 11.9497C148.603 12.1897 148.683 12.4397 148.683 12.6997C148.683 12.9997 148.543 13.3097 148.263 13.6297C148.003 13.9497 147.683 14.2497 147.303 14.5297C146.923 14.7897 146.543 15.0097 146.163 15.1897C145.783 15.3497 145.483 15.4297 145.263 15.4297C145.143 15.4297 145.033 15.3797 144.933 15.2797C144.853 15.1597 144.813 15.0197 144.813 14.8597C144.813 14.5797 144.933 14.3597 145.173 14.1997C145.433 14.0397 145.713 13.8997 146.013 13.7797C146.313 13.6397 146.583 13.4797 146.823 13.2997C147.083 13.1197 147.213 12.8697 147.213 12.5497C147.213 12.5097 147.163 12.4097 147.063 12.2497C146.963 12.0897 146.693 12.0097 146.253 12.0097C146.053 12.0097 145.823 12.1297 145.563 12.3697C145.303 12.5897 145.053 12.8997 144.813 13.2997C144.573 13.6797 144.373 14.1397 144.213 14.6797C144.053 15.1997 143.973 15.7697 143.973 16.3897C143.973 16.9097 144.063 17.3797 144.243 17.7997C144.443 18.2197 144.693 18.5797 144.993 18.8797C145.293 19.1597 145.643 19.3797 146.043 19.5397C146.443 19.6997 146.853 19.7797 147.273 19.7797C147.573 19.7797 147.893 19.7197 148.233 19.5997C148.593 19.4597 148.923 19.3197 149.223 19.1797C149.543 19.0197 149.813 18.8797 150.033 18.7597C150.273 18.6197 150.423 18.5497 150.483 18.5497C150.543 18.5497 150.603 18.5797 150.663 18.6397C150.743 18.6997 150.793 18.7597 150.813 18.8197Z" fill="#1BBC9B"/>
</svg>
