<svg width="36" height="36" viewBox="0 0 36 36" fill="none" xmlns="http://www.w3.org/2000/svg">
<path d="M34.5215 30.6279C35.1367 31.3115 35.1367 32.3369 34.4531 32.9521L32.5391 34.8662C31.9238 35.5498 30.8984 35.5498 30.2148 34.8662L23.4473 28.0986C23.1055 27.7568 22.9688 27.3467 22.9688 26.9365V25.7744C20.5078 27.6885 17.5 28.7822 14.2188 28.7822C6.35742 28.7822 0 22.4248 0 14.5635C0 6.77051 6.35742 0.344727 14.2188 0.344727C22.0117 0.344727 28.4375 6.77051 28.4375 14.5635C28.4375 17.9131 27.2754 20.9209 25.4297 23.3135H26.5234C26.9336 23.3135 27.3438 23.5186 27.6855 23.792L34.5215 30.6279ZM14.2188 23.3135C19.0039 23.3135 22.9688 19.417 22.9688 14.5635C22.9688 9.77832 19.0039 5.81348 14.2188 5.81348C9.36523 5.81348 5.46875 9.77832 5.46875 14.5635C5.46875 19.417 9.36523 23.3135 14.2188 23.3135Z" fill="#F3A46B"/>
</svg>
