<svg width="32" height="32" viewBox="0 0 32 32" fill="none" xmlns="http://www.w3.org/2000/svg">
<path d="M30.7022 26.6786C31.2437 27.2803 31.2437 28.1829 30.642 28.7244L28.9573 30.4092C28.4158 31.0109 27.5132 31.0109 26.9115 30.4092L20.9547 24.4524C20.6538 24.1515 20.5335 23.7905 20.5335 23.4295V22.4066C18.3674 24.0913 15.7199 25.0541 12.8317 25.0541C5.91221 25.0541 0.316406 19.4583 0.316406 12.5387C0.316406 5.67934 5.91221 0.0233679 12.8317 0.0233679C19.6911 0.0233679 25.3471 5.67934 25.3471 12.5387C25.3471 15.487 24.3242 18.1345 22.6996 20.2405H23.6623C24.0234 20.2405 24.3844 20.421 24.6852 20.6617L30.7022 26.6786ZM12.8317 20.2405C17.0436 20.2405 20.5335 16.8108 20.5335 12.5387C20.5335 8.32682 17.0436 4.83696 12.8317 4.83696C8.55969 4.83696 5.13 8.32682 5.13 12.5387C5.13 16.8108 8.55969 20.2405 12.8317 20.2405Z" fill="#14B9D5"/>
</svg>
