<svg width="15" height="15" viewBox="0 0 15 15" fill="none" xmlns="http://www.w3.org/2000/svg">
<path d="M7.44922 0.40918C11.4629 0.40918 14.7148 3.66113 14.7148 7.6748C14.7148 11.6885 11.4629 14.9404 7.44922 14.9404C3.43555 14.9404 0.183594 11.6885 0.183594 7.6748C0.183594 3.66113 3.43555 0.40918 7.44922 0.40918ZM10.1445 9.5791C10.2031 9.52051 10.2617 9.40332 10.2617 9.28613C10.2617 9.13965 10.1738 9.02246 10.0859 8.93457L8.38672 7.6748V3.45605C8.38672 3.22168 8.15234 2.9873 7.91797 2.9873H6.98047C6.7168 2.9873 6.51172 3.22168 6.51172 3.45605V8.02637C6.51172 8.40723 6.6582 8.72949 6.95117 8.93457L8.91406 10.3994C8.97266 10.458 9.08984 10.5166 9.17773 10.5166C9.35352 10.5166 9.4707 10.4287 9.55859 10.3115L10.1445 9.5791Z" fill="#1BBC9B"/>
</svg>
